<svg xmlns="http://www.w3.org/2000/svg" version="1.0" preserveAspectRatio="xMidYMid meet" viewBox="323.08 162 516.82 342.5">

<g transform="translate(0.000000,720.000000) scale(0.100000,-0.100000)" fill="#000000" stroke="none">
<path d="M5282 5568 c-7 -7 -12 -25 -12 -40 0 -32 -50 -74 -140 -117 -53 -25 -60 -26 -212 -23 -383 8 -686 -78 -989 -279 -123 -82 -333 -291 -416 -414 -120 -178 -201 -363 -249 -571 -22 -99 -28 -150 -32 -300 -5 -204 5 -303 48 -468 138 -533 539 -959 1065 -1131 173 -56 263 -69 490 -70 227 0 291 8 482 64 187 54 331 126 513 257 128 92 181 120 274 144 l71 19 -46 0 c-26 1 -66 -6 -89 -14 -24 -8 -45 -13 -47 -11 -5 5 59 55 112 88 49 30 162 76 218 88 37 8 34 9 -23 5 -36 -2 -87 -13 -114 -24 -26 -12 -50 -21 -52 -21 -2 0 11 24 30 53 19 28 42 77 50 107 11 39 23 58 39 65 25 11 34 49 17 71 -18 20 -57 17 -70 -5 -14 -27 -13 -37 6 -56 15 -15 15 -20 -4 -65 -29 -69 -82 -146 -141 -204 l-50 -49 24 59 c36 88 29 110 -9 29 -32 -68 -147 -225 -165 -225 -5 0 4 24 19 53 16 28 31 70 35 92 l6 40 -19 -45 c-68 -167 -199 -276 -437 -363 -202 -74 -359 -102 -580 -101 -271 0 -451 42 -692 160 -385 188 -664 510 -798 918 -59 181 -70 255 -70 496 0 189 3 227 23 319 148 658 660 1141 1313 1237 128 18 393 15 463 -6 21 -6 59 -31 84 -54 45 -42 45 -43 28 -69 -10 -14 -16 -36 -14 -49 4 -26 41 -48 69 -41 45 12 49 88 5 99 -13 3 -37 25 -54 50 l-32 44 38 -15 c45 -19 75 -46 115 -105 17 -25 36 -50 42 -56 5 -6 19 -27 30 -47 18 -34 18 -37 2 -55 -23 -26 -22 -68 4 -85 24 -18 51 -12 76 15 16 18 16 22 2 46 -8 15 -24 28 -34 30 -13 2 -28 22 -44 58 -13 31 -29 61 -35 68 -21 22 -76 95 -76 100 0 6 102 -35 170 -68 l55 -28 0 -126 c0 -153 23 -238 93 -342 51 -75 106 -175 114 -207 3 -13 11 -23 16 -23 18 0 43 141 43 235 -1 149 -40 257 -131 359 l-45 50 40 -23 c22 -13 60 -40 85 -60 25 -20 70 -54 100 -75 52 -36 53 -36 20 -6 -23 21 -28 30 -15 25 11 -4 83 -29 160 -57 77 -27 159 -60 182 -73 l43 -24 -12 22 c-28 54 -96 147 -146 199 -125 131 -261 179 -421 147 -55 -11 -58 -10 -146 29 -82 38 -87 41 -60 47 17 3 44 10 61 16 23 7 40 6 58 -2 56 -26 110 38 71 81 -20 22 -67 26 -83 8 -5 -7 -12 -24 -14 -38 -6 -47 -119 -61 -231 -28 -53 16 -27 30 41 22 61 -7 82 5 82 46 0 34 -22 53 -62 53 -34 0 -58 -24 -58 -59 0 -39 -65 -41 -189 -7 -50 14 -53 17 -36 29 10 8 23 14 28 14 5 0 37 20 71 44 50 34 69 42 94 38 39 -5 62 12 62 47 0 34 -17 51 -50 51 -14 0 -31 -5 -38 -12z m635 -438 c68 -24 129 -68 189 -138 l49 -57 -40 25 c-22 14 -119 64 -215 112 l-175 88 70 -6 c39 -4 93 -14 122 -24z m-69 -64 c73 -30 163 -71 200 -91 66 -35 131 -81 102 -72 -205 61 -258 83 -357 149 -92 62 -126 90 -90 75 6 -3 72 -30 145 -61z m-212 -40 c19 -40 47 -124 63 -187 33 -133 46 -204 31 -174 -21 44 -102 274 -121 340 -33 120 -24 128 27 21z m-9 -131 c20 -60 51 -148 69 -194 19 -46 34 -86 34 -90 0 -10 -80 111 -106 163 -32 62 -54 163 -53 246 1 63 1 64 10 25 5 -22 26 -89 46 -150z"/>
<path d="M5887 4892 c-23 -80 -12 -243 22 -331 10 -26 45 -91 78 -144 34 -54 71 -122 84 -152 12 -30 26 -55 30 -55 17 0 43 149 43 245 -1 80 -6 114 -26 171 -31 88 -85 171 -146 225 -64 56 -79 63 -85 41z m183 -203 c36 -71 60 -165 60 -238 0 -72 -20 -188 -30 -170 -4 8 -17 72 -30 143 -28 161 -61 279 -106 370 l-35 71 56 -58 c30 -32 69 -85 85 -118z m-110 69 c35 -76 81 -236 95 -333 l6 -40 -14 30 c-20 42 -124 353 -132 393 -11 53 4 37 45 -50z"/>
<path d="M5023 4871 c-113 -52 -269 -264 -347 -473 -59 -156 -106 -413 -106 -578 l0 -79 -72 -47 c-40 -25 -77 -48 -83 -51 -7 -2 -23 13 -37 34 -42 64 -109 137 -190 208 -117 101 -147 163 -126 260 15 72 70 125 128 125 74 0 124 -74 85 -126 -19 -25 -19 -53 0 -60 23 -9 43 13 56 59 36 134 -119 252 -249 190 -84 -40 -154 -146 -174 -264 -8 -53 -7 -76 6 -129 21 -79 47 -125 134 -232 37 -46 86 -110 109 -144 l42 -60 -81 -60 c-208 -154 -298 -317 -239 -436 11 -23 37 -54 58 -68 33 -22 47 -25 132 -25 90 0 100 2 158 34 110 59 192 171 223 301 18 72 15 202 -4 264 -15 48 -14 50 7 70 28 26 108 79 112 74 1 -2 8 -61 14 -133 16 -168 38 -317 52 -349 12 -25 63 -56 93 -56 10 0 28 11 41 24 24 24 24 27 19 163 l-5 138 24 -56 c115 -267 257 -390 390 -340 39 15 98 82 152 173 28 46 55 88 61 93 6 6 28 42 49 80 21 39 58 98 81 133 24 35 44 67 44 72 0 15 99 98 143 119 118 57 293 54 1152 -24 209 -19 445 -40 525 -47 213 -18 573 -16 686 5 178 33 255 69 293 137 42 76 16 144 -60 156 -46 8 -100 -12 -211 -79 -158 -93 -289 -120 -588 -119 -195 0 -393 10 -740 37 -618 49 -882 57 -983 30 -145 -38 -234 -109 -326 -261 -30 -49 -61 -96 -68 -104 -8 -8 -43 -64 -79 -125 -70 -120 -120 -175 -158 -175 -50 0 -122 119 -192 318 -32 91 -33 83 21 120 32 22 141 152 156 188 65 145 33 259 -74 271 -90 10 -165 -55 -240 -210 -24 -51 -49 -103 -54 -116 -7 -17 -8 -5 -5 45 5 75 -2 63 117 209 240 292 380 615 343 789 -16 74 -69 126 -129 126 -24 0 -63 -9 -86 -19z m114 -240 c-6 -88 -36 -202 -81 -304 -60 -135 -248 -418 -254 -384 -6 32 48 263 89 382 75 220 200 424 242 398 6 -3 8 -40 4 -92z m-97 -692 c0 -18 -9 -47 -21 -65 -23 -37 -149 -157 -157 -149 -3 3 16 47 41 99 63 127 137 189 137 115z m-804 -555 c3 -31 4 -82 1 -113 -11 -131 -111 -241 -218 -241 -61 0 -84 25 -83 89 1 60 33 122 98 186 48 48 169 135 186 135 5 0 12 -25 16 -56z"/>
<path d="M6080 3500 c0 -5 7 -10 15 -10 13 0 15 -21 15 -130 0 -109 -2 -130 -15 -130 -8 0 -15 -4 -15 -10 0 -18 161 -12 200 8 59 29 67 110 14 134 -21 10 -23 14 -12 23 24 16 40 54 33 75 -11 35 -57 50 -150 50 -50 0 -85 -4 -85 -10z m154 -26 c33 -32 10 -94 -35 -94 -16 0 -19 7 -19 55 0 48 3 55 19 55 11 0 27 -7 35 -16z m8 -131 c38 -35 12 -113 -39 -113 -22 0 -23 3 -23 65 0 60 2 65 22 65 12 0 30 -7 40 -17z"/>
<path d="M6430 3500 c0 -5 7 -10 15 -10 13 0 15 -21 15 -130 0 -109 -2 -130 -15 -130 -8 0 -15 -5 -15 -10 0 -7 38 -10 108 -8 l107 3 3 38 c4 45 -9 48 -25 7 -10 -27 -16 -30 -52 -30 l-41 0 0 60 c0 57 1 60 25 60 13 0 29 -8 34 -17 8 -14 10 -7 10 32 0 43 -2 47 -11 28 -7 -14 -20 -23 -35 -23 -22 0 -23 4 -23 60 l0 60 39 0 c33 0 40 -4 43 -22 5 -34 23 -28 26 10 l3 32 -105 0 c-64 0 -106 -4 -106 -10z"/>
<path d="M6821 3383 c-34 -84 -61 -136 -79 -150 l-27 -23 53 0 c28 0 52 5 52 10 0 6 -7 10 -16 10 -11 0 -14 5 -9 18 4 9 10 25 12 35 4 13 16 17 53 17 46 0 49 -1 55 -32 5 -21 4 -33 -4 -36 -6 -2 -11 -8 -11 -13 0 -5 30 -9 68 -8 63 0 66 1 45 15 -14 10 -37 60 -68 150 -27 74 -53 134 -60 134 -7 0 -36 -57 -64 -127z m69 -40 c0 -8 -12 -13 -30 -13 -35 0 -35 -1 -14 48 l16 37 14 -30 c7 -16 13 -36 14 -42z"/>
<path d="M7090 3500 c0 -5 6 -10 14 -10 10 0 14 -26 18 -109 5 -129 17 -155 80 -172 50 -13 105 0 134 32 16 18 20 40 22 135 3 90 7 114 18 114 8 0 14 5 14 10 0 6 -20 10 -45 10 -25 0 -45 -4 -45 -10 0 -5 7 -10 15 -10 12 0 15 -19 15 -108 0 -100 -2 -110 -23 -130 -29 -27 -71 -28 -97 -2 -17 17 -20 33 -20 126 0 90 3 109 18 120 15 12 8 13 -50 14 -39 0 -68 -4 -68 -10z"/>
<path d="M7480 3470 c0 -47 16 -53 25 -10 5 25 11 30 36 30 l29 0 0 -130 c0 -109 -2 -130 -15 -130 -8 0 -15 -4 -15 -10 0 -6 30 -10 71 -10 44 0 68 4 64 10 -3 6 -13 10 -21 10 -11 0 -14 23 -14 130 l0 130 29 0 c24 0 29 -5 35 -32 7 -37 15 -33 26 16 l8 36 -129 0 -129 0 0 -40z"/>
<path d="M7832 3487 c47 -38 98 -142 98 -198 0 -35 -4 -51 -15 -55 -33 -13 -12 -24 45 -24 33 0 60 4 60 10 0 6 -7 10 -15 10 -12 0 -15 13 -15 60 0 49 6 71 31 118 18 31 44 67 58 79 l26 23 -55 0 c-49 -1 -53 -2 -37 -14 17 -14 17 -16 -8 -67 l-27 -52 -29 49 c-33 56 -35 64 -14 64 8 0 15 5 15 10 0 6 -31 10 -72 10 l-73 0 27 -23z"/>
<path d="M6410 3005 c-23 -28 9 -72 45 -59 36 14 24 74 -15 74 -10 0 -23 -7 -30 -15z"/>
<path d="M6032 2938 c-21 -21 -15 -68 11 -77 43 -17 75 39 41 73 -19 19 -36 20 -52 4z"/>
<path d="M6406 2827 c-36 -26 4 -84 42 -61 23 15 26 38 7 58 -20 19 -26 20 -49 3z"/>
<path d="M5895 2807 c-13 -10 -16 -21 -12 -39 9 -33 43 -42 68 -17 21 21 16 44 -12 59 -22 13 -22 13 -44 -3z"/>
<path d="M6252 2658 c-23 -23 -7 -68 25 -68 19 0 33 41 21 63 -10 20 -29 22 -46 5z"/>
</g>
</svg>