<?xml version="1.0" encoding="UTF-8"?>
<svg xmlns="http://www.w3.org/2000/svg" xmlns:xlink="http://www.w3.org/1999/xlink" width="98px" height="65px" viewBox="0 0 97 65" version="1.1">
<g id="surface1">
<path style=" stroke:none;fill-rule:nonzero;fill:rgb(0%,0%,0%);fill-opacity:1;" d="M 38.5 0.261719 C 38.367188 0.394531 38.273438 0.738281 38.273438 1.023438 C 38.273438 1.628906 37.335938 2.425781 35.644531 3.238281 C 34.652344 3.714844 34.519531 3.734375 31.667969 3.675781 C 24.476562 3.523438 18.792969 5.15625 13.105469 8.964844 C 10.796875 10.519531 6.855469 14.480469 5.296875 16.8125 C 3.042969 20.1875 1.523438 23.695312 0.625 27.636719 C 0.210938 29.515625 0.0976562 30.480469 0.0234375 33.324219 C -0.0703125 37.191406 0.117188 39.070312 0.921875 42.195312 C 3.511719 52.300781 11.039062 60.375 20.910156 63.636719 C 24.160156 64.699219 25.847656 64.945312 30.109375 64.964844 C 34.367188 64.964844 35.570312 64.8125 39.15625 63.75 C 42.664062 62.726562 45.367188 61.363281 48.785156 58.878906 C 51.1875 57.132812 52.179688 56.605469 53.925781 56.148438 L 55.257812 55.789062 L 54.394531 55.789062 C 53.90625 55.769531 53.15625 55.902344 52.726562 56.054688 C 52.273438 56.207031 51.878906 56.300781 51.84375 56.261719 C 51.75 56.167969 52.949219 55.21875 53.945312 54.59375 C 54.863281 54.027344 56.984375 53.152344 58.035156 52.925781 C 58.730469 52.773438 58.675781 52.753906 57.605469 52.832031 C 56.929688 52.871094 55.972656 53.078125 55.464844 53.285156 C 54.976562 53.515625 54.527344 53.683594 54.488281 53.683594 C 54.453125 53.683594 54.695312 53.230469 55.050781 52.679688 C 55.410156 52.148438 55.839844 51.21875 55.992188 50.652344 C 56.195312 49.910156 56.421875 49.550781 56.722656 49.417969 C 57.191406 49.210938 57.359375 48.492188 57.042969 48.074219 C 56.703125 47.695312 55.972656 47.75 55.726562 48.167969 C 55.464844 48.679688 55.484375 48.871094 55.839844 49.230469 C 56.121094 49.515625 56.121094 49.609375 55.765625 50.460938 C 55.222656 51.769531 54.226562 53.230469 53.117188 54.328125 L 52.179688 55.257812 L 52.632812 54.140625 C 53.308594 52.472656 53.175781 52.054688 52.460938 53.589844 C 51.863281 54.878906 49.703125 57.855469 49.367188 57.855469 C 49.269531 57.855469 49.441406 57.398438 49.722656 56.851562 C 50.023438 56.320312 50.304688 55.523438 50.378906 55.105469 L 50.492188 54.347656 L 50.132812 55.199219 C 48.859375 58.367188 46.398438 60.433594 41.933594 62.082031 C 38.140625 63.484375 35.195312 64.015625 31.046875 63.996094 C 25.960938 63.996094 22.582031 63.199219 18.058594 60.964844 C 10.832031 57.398438 5.597656 51.296875 3.082031 43.5625 C 1.972656 40.128906 1.769531 38.726562 1.769531 34.160156 C 1.769531 30.574219 1.824219 29.855469 2.199219 28.113281 C 4.976562 15.636719 14.585938 6.480469 26.84375 4.660156 C 29.246094 4.320312 34.21875 4.378906 35.53125 4.773438 C 35.925781 4.890625 36.640625 5.363281 37.109375 5.800781 C 37.953125 6.59375 37.953125 6.613281 37.636719 7.105469 C 37.445312 7.371094 37.335938 7.789062 37.371094 8.035156 C 37.445312 8.527344 38.140625 8.945312 38.667969 8.8125 C 39.511719 8.585938 39.585938 7.144531 38.761719 6.9375 C 38.515625 6.878906 38.066406 6.460938 37.746094 5.988281 L 37.148438 5.15625 L 37.859375 5.4375 C 38.703125 5.800781 39.269531 6.3125 40.019531 7.429688 C 40.335938 7.902344 40.695312 8.378906 40.808594 8.492188 C 40.902344 8.605469 41.164062 9.003906 41.371094 9.382812 C 41.707031 10.027344 41.707031 10.082031 41.40625 10.425781 C 40.976562 10.917969 40.996094 11.714844 41.480469 12.035156 C 41.933594 12.378906 42.441406 12.261719 42.910156 11.75 C 43.210938 11.410156 43.210938 11.335938 42.945312 10.878906 C 42.796875 10.59375 42.496094 10.347656 42.308594 10.3125 C 42.0625 10.273438 41.78125 9.894531 41.480469 9.210938 C 41.238281 8.625 40.9375 8.054688 40.824219 7.921875 C 40.429688 7.503906 39.398438 6.121094 39.398438 6.027344 C 39.398438 5.914062 41.3125 6.691406 42.589844 7.316406 L 43.621094 7.847656 L 43.621094 10.234375 C 43.621094 13.136719 44.054688 14.746094 45.367188 16.71875 C 46.324219 18.140625 47.355469 20.035156 47.507812 20.640625 C 47.5625 20.890625 47.714844 21.078125 47.808594 21.078125 C 48.144531 21.078125 48.613281 18.40625 48.613281 16.625 C 48.597656 13.800781 47.863281 11.75 46.15625 9.816406 L 45.3125 8.871094 L 46.0625 9.304688 C 46.476562 9.550781 47.1875 10.0625 47.65625 10.445312 C 48.125 10.824219 48.972656 11.46875 49.535156 11.867188 C 50.511719 12.546875 50.527344 12.546875 49.910156 11.980469 C 49.476562 11.582031 49.382812 11.410156 49.628906 11.503906 C 49.835938 11.582031 51.1875 12.054688 52.632812 12.585938 C 54.074219 13.097656 55.613281 13.722656 56.046875 13.96875 L 56.855469 14.425781 L 56.628906 14.007812 C 56.101562 12.984375 54.828125 11.222656 53.886719 10.234375 C 51.542969 7.75 48.988281 6.839844 45.988281 7.449219 C 44.953125 7.65625 44.898438 7.636719 43.246094 6.898438 C 41.707031 6.179688 41.613281 6.121094 42.121094 6.007812 C 42.441406 5.949219 42.945312 5.816406 43.265625 5.703125 C 43.695312 5.570312 44.015625 5.589844 44.355469 5.742188 C 45.40625 6.234375 46.417969 5.023438 45.6875 4.207031 C 45.3125 3.789062 44.429688 3.714844 44.128906 4.054688 C 44.035156 4.1875 43.902344 4.511719 43.867188 4.773438 C 43.753906 5.667969 41.632812 5.933594 39.53125 5.304688 C 38.535156 5.003906 39.023438 4.738281 40.300781 4.890625 C 41.445312 5.023438 41.839844 4.792969 41.839844 4.015625 C 41.839844 3.371094 41.425781 3.011719 40.675781 3.011719 C 40.039062 3.011719 39.585938 3.46875 39.585938 4.128906 C 39.585938 4.871094 38.367188 4.90625 36.039062 4.261719 C 35.101562 4 35.042969 3.941406 35.363281 3.714844 C 35.550781 3.5625 35.796875 3.449219 35.890625 3.449219 C 35.984375 3.449219 36.582031 3.070312 37.222656 2.613281 C 38.160156 1.96875 38.515625 1.816406 38.984375 1.894531 C 39.71875 1.988281 40.148438 1.667969 40.148438 1.003906 C 40.148438 0.359375 39.832031 0.0351562 39.210938 0.0351562 C 38.949219 0.0351562 38.628906 0.128906 38.5 0.261719 Z M 50.417969 8.566406 C 51.691406 9.023438 52.835938 9.855469 53.964844 11.183594 L 54.882812 12.261719 L 54.132812 11.789062 C 53.71875 11.523438 51.898438 10.578125 50.097656 9.667969 L 46.8125 7.996094 L 48.125 8.113281 C 48.859375 8.1875 49.871094 8.378906 50.417969 8.566406 Z M 49.121094 9.78125 C 50.492188 10.347656 52.179688 11.125 52.875 11.503906 C 54.113281 12.167969 55.332031 13.039062 54.789062 12.871094 C 50.941406 11.714844 49.945312 11.296875 48.089844 10.046875 C 46.363281 8.871094 45.722656 8.339844 46.398438 8.625 C 46.511719 8.679688 47.75 9.191406 49.121094 9.78125 Z M 45.140625 10.539062 C 45.5 11.296875 46.023438 12.890625 46.324219 14.082031 C 46.945312 16.605469 47.1875 17.949219 46.90625 17.382812 C 46.511719 16.546875 44.992188 12.1875 44.636719 10.9375 C 44.015625 8.660156 44.183594 8.511719 45.140625 10.539062 Z M 44.972656 13.023438 C 45.347656 14.160156 45.929688 15.828125 46.269531 16.699219 C 46.625 17.570312 46.90625 18.328125 46.90625 18.40625 C 46.90625 18.59375 45.40625 16.300781 44.917969 15.316406 C 44.316406 14.140625 43.902344 12.226562 43.921875 10.652344 C 43.941406 9.457031 43.941406 9.4375 44.109375 10.179688 C 44.203125 10.59375 44.597656 11.867188 44.972656 13.023438 Z M 44.972656 13.023438 "/>
<path style=" stroke:none;fill-rule:nonzero;fill:rgb(0%,0%,0%);fill-opacity:1;" d="M 49.851562 13.078125 C 49.421875 14.59375 49.628906 17.683594 50.265625 19.351562 C 50.453125 19.847656 51.109375 21.078125 51.730469 22.082031 C 52.367188 23.105469 53.0625 24.394531 53.308594 24.964844 C 53.53125 25.535156 53.792969 26.007812 53.871094 26.007812 C 54.1875 26.007812 54.675781 23.183594 54.675781 21.363281 C 54.65625 19.847656 54.5625 19.203125 54.1875 18.121094 C 53.605469 16.453125 52.59375 14.878906 51.449219 13.855469 C 50.246094 12.792969 49.964844 12.660156 49.851562 13.078125 Z M 53.289062 16.925781 C 53.964844 18.273438 54.414062 20.054688 54.414062 21.4375 C 54.414062 22.804688 54.039062 25.003906 53.851562 24.660156 C 53.777344 24.507812 53.53125 23.296875 53.289062 21.949219 C 52.761719 18.898438 52.144531 16.660156 51.296875 14.9375 L 50.640625 13.589844 L 51.691406 14.691406 C 52.253906 15.296875 52.988281 16.300781 53.289062 16.925781 Z M 51.222656 15.617188 C 51.878906 17.058594 52.742188 20.09375 53.007812 21.929688 L 53.117188 22.691406 L 52.855469 22.121094 C 52.480469 21.324219 50.527344 15.429688 50.378906 14.671875 C 50.171875 13.667969 50.453125 13.96875 51.222656 15.617188 Z M 51.222656 15.617188 "/>
<path style=" stroke:none;fill-rule:nonzero;fill:rgb(0%,0%,0%);fill-opacity:1;" d="M 33.636719 13.476562 C 31.515625 14.460938 28.589844 18.480469 27.125 22.441406 C 26.015625 25.402344 25.136719 30.273438 25.136719 33.402344 L 25.136719 34.898438 L 23.785156 35.789062 C 23.03125 36.261719 22.339844 36.699219 22.226562 36.753906 C 22.09375 36.792969 21.792969 36.507812 21.53125 36.109375 C 20.742188 34.898438 19.484375 33.515625 17.964844 32.167969 C 15.769531 30.253906 15.207031 29.078125 15.601562 27.238281 C 15.882812 25.875 16.914062 24.871094 18.003906 24.871094 C 19.390625 24.871094 20.332031 26.273438 19.597656 27.257812 C 19.242188 27.730469 19.242188 28.261719 19.597656 28.394531 C 20.03125 28.566406 20.40625 28.148438 20.648438 27.277344 C 21.324219 24.738281 18.414062 22.5 15.976562 23.675781 C 14.398438 24.433594 13.085938 26.441406 12.710938 28.679688 C 12.558594 29.683594 12.578125 30.121094 12.824219 31.125 C 13.21875 32.625 13.703125 33.496094 15.335938 35.523438 C 16.03125 36.394531 16.953125 37.609375 17.382812 38.253906 L 18.171875 39.390625 L 16.652344 40.527344 C 12.746094 43.449219 11.058594 46.539062 12.164062 48.792969 C 12.371094 49.230469 12.859375 49.816406 13.253906 50.082031 C 13.875 50.5 14.136719 50.554688 15.730469 50.554688 C 17.421875 50.554688 17.609375 50.519531 18.699219 49.910156 C 20.761719 48.792969 22.300781 46.671875 22.882812 44.207031 C 23.21875 42.839844 23.164062 40.375 22.808594 39.203125 C 22.527344 38.292969 22.542969 38.253906 22.9375 37.875 C 23.464844 37.382812 24.964844 36.375 25.042969 36.472656 C 25.058594 36.507812 25.191406 37.628906 25.304688 38.992188 C 25.605469 42.175781 26.015625 45.003906 26.28125 45.609375 C 26.503906 46.082031 27.460938 46.671875 28.023438 46.671875 C 28.214844 46.671875 28.550781 46.460938 28.792969 46.214844 C 29.246094 45.761719 29.246094 45.703125 29.152344 43.125 L 29.058594 40.507812 L 29.507812 41.570312 C 31.667969 46.632812 34.332031 48.964844 36.828125 48.015625 C 37.558594 47.730469 38.667969 46.460938 39.679688 44.738281 C 40.207031 43.863281 40.714844 43.070312 40.824219 42.972656 C 40.9375 42.859375 41.351562 42.175781 41.746094 41.457031 C 42.140625 40.71875 42.832031 39.597656 43.265625 38.9375 C 43.714844 38.273438 44.089844 37.664062 44.089844 37.570312 C 44.089844 37.285156 45.949219 35.714844 46.773438 35.316406 C 48.988281 34.234375 52.273438 34.292969 68.398438 35.769531 C 72.320312 36.128906 76.75 36.527344 78.25 36.660156 C 82.246094 37.003906 89.003906 36.964844 91.125 36.566406 C 94.464844 35.941406 95.910156 35.257812 96.625 33.96875 C 97.414062 32.527344 96.925781 31.238281 95.5 31.011719 C 94.636719 30.859375 93.621094 31.238281 91.539062 32.507812 C 88.574219 34.273438 86.113281 34.785156 80.503906 34.765625 C 76.84375 34.765625 73.125 34.574219 66.613281 34.0625 C 55.015625 33.136719 50.058594 32.984375 48.164062 33.496094 C 45.441406 34.214844 43.773438 35.5625 42.046875 38.441406 C 41.480469 39.371094 40.902344 40.261719 40.769531 40.414062 C 40.617188 40.566406 39.960938 41.628906 39.285156 42.785156 C 37.972656 45.058594 37.035156 46.101562 36.320312 46.101562 C 35.382812 46.101562 34.03125 43.847656 32.71875 40.074219 C 32.117188 38.347656 32.097656 38.5 33.113281 37.796875 C 33.710938 37.382812 35.757812 34.917969 36.039062 34.234375 C 37.257812 31.484375 36.660156 29.324219 34.652344 29.097656 C 32.960938 28.90625 31.554688 30.140625 30.144531 33.078125 C 29.695312 34.046875 29.226562 35.03125 29.132812 35.277344 C 29 35.597656 28.984375 35.371094 29.039062 34.425781 C 29.132812 33.003906 29 33.230469 31.234375 30.460938 C 35.738281 24.925781 38.367188 18.804688 37.671875 15.503906 C 37.371094 14.101562 36.378906 13.117188 35.25 13.117188 C 34.800781 13.117188 34.070312 13.285156 33.636719 13.476562 Z M 35.777344 18.027344 C 35.664062 19.695312 35.101562 21.855469 34.257812 23.789062 C 33.128906 26.347656 29.601562 31.714844 29.488281 31.070312 C 29.375 30.460938 30.390625 26.082031 31.160156 23.828125 C 32.566406 19.65625 34.914062 15.789062 35.703125 16.28125 C 35.8125 16.339844 35.851562 17.039062 35.777344 18.027344 Z M 33.957031 31.144531 C 33.957031 31.484375 33.789062 32.035156 33.5625 32.375 C 33.128906 33.078125 30.765625 35.351562 30.617188 35.203125 C 30.558594 35.144531 30.914062 34.308594 31.386719 33.324219 C 32.566406 30.917969 33.957031 29.742188 33.957031 31.144531 Z M 18.867188 41.664062 C 18.921875 42.253906 18.941406 43.21875 18.886719 43.808594 C 18.679688 46.292969 16.800781 48.375 14.792969 48.375 C 13.648438 48.375 13.21875 47.902344 13.234375 46.6875 C 13.253906 45.550781 13.855469 44.375 15.074219 43.164062 C 15.976562 42.253906 18.246094 40.605469 18.566406 40.605469 C 18.660156 40.605469 18.792969 41.078125 18.867188 41.664062 Z M 18.867188 41.664062 "/>
<path style=" stroke:none;fill-rule:nonzero;fill:rgb(0%,0%,0%);fill-opacity:1;" d="M 53.476562 39.464844 C 53.476562 39.5625 53.605469 39.65625 53.757812 39.65625 C 54 39.65625 54.039062 40.054688 54.039062 42.121094 C 54.039062 44.1875 54 44.585938 53.757812 44.585938 C 53.605469 44.585938 53.476562 44.660156 53.476562 44.773438 C 53.476562 45.117188 56.496094 45.003906 57.230469 44.621094 C 58.335938 44.074219 58.488281 42.539062 57.492188 42.082031 C 57.097656 41.894531 57.058594 41.816406 57.265625 41.648438 C 57.71875 41.34375 58.015625 40.625 57.886719 40.226562 C 57.679688 39.5625 56.816406 39.277344 55.070312 39.277344 C 54.132812 39.277344 53.476562 39.351562 53.476562 39.464844 Z M 56.367188 39.960938 C 56.984375 40.566406 56.554688 41.742188 55.710938 41.742188 C 55.410156 41.742188 55.351562 41.609375 55.351562 40.699219 C 55.351562 39.789062 55.410156 39.65625 55.710938 39.65625 C 55.914062 39.65625 56.214844 39.789062 56.367188 39.960938 Z M 56.515625 42.441406 C 57.230469 43.105469 56.742188 44.585938 55.785156 44.585938 C 55.371094 44.585938 55.351562 44.527344 55.351562 43.351562 C 55.351562 42.214844 55.390625 42.121094 55.765625 42.121094 C 55.992188 42.121094 56.328125 42.253906 56.515625 42.441406 Z M 56.515625 42.441406 "/>
<path style=" stroke:none;fill-rule:nonzero;fill:rgb(0%,0%,0%);fill-opacity:1;" d="M 60.042969 39.464844 C 60.042969 39.5625 60.175781 39.65625 60.324219 39.65625 C 60.570312 39.65625 60.609375 40.054688 60.609375 42.121094 C 60.609375 44.1875 60.570312 44.585938 60.324219 44.585938 C 60.175781 44.585938 60.042969 44.679688 60.042969 44.773438 C 60.042969 44.90625 60.757812 44.964844 62.070312 44.925781 L 64.078125 44.871094 L 64.136719 44.148438 C 64.210938 43.296875 63.96875 43.238281 63.667969 44.015625 C 63.480469 44.527344 63.367188 44.585938 62.691406 44.585938 L 61.921875 44.585938 L 61.921875 43.449219 C 61.921875 42.367188 61.941406 42.308594 62.390625 42.308594 C 62.632812 42.308594 62.933594 42.460938 63.027344 42.632812 C 63.179688 42.898438 63.214844 42.765625 63.214844 42.027344 C 63.214844 41.210938 63.179688 41.136719 63.011719 41.496094 C 62.878906 41.761719 62.632812 41.929688 62.351562 41.929688 C 61.941406 41.929688 61.921875 41.855469 61.921875 40.792969 L 61.921875 39.65625 L 62.652344 39.65625 C 63.273438 39.65625 63.402344 39.730469 63.460938 40.074219 C 63.554688 40.71875 63.890625 40.605469 63.949219 39.882812 L 64.003906 39.277344 L 62.035156 39.277344 C 60.832031 39.277344 60.042969 39.351562 60.042969 39.464844 Z M 60.042969 39.464844 "/>
<path style=" stroke:none;fill-rule:nonzero;fill:rgb(0%,0%,0%);fill-opacity:1;" d="M 67.382812 41.683594 C 66.746094 43.277344 66.238281 44.261719 65.902344 44.527344 L 65.394531 44.964844 L 66.386719 44.964844 C 66.914062 44.964844 67.363281 44.871094 67.363281 44.773438 C 67.363281 44.660156 67.234375 44.585938 67.0625 44.585938 C 66.859375 44.585938 66.800781 44.492188 66.894531 44.242188 C 66.96875 44.074219 67.082031 43.769531 67.121094 43.582031 C 67.195312 43.332031 67.421875 43.257812 68.113281 43.257812 C 68.976562 43.257812 69.035156 43.277344 69.148438 43.863281 C 69.242188 44.261719 69.222656 44.492188 69.074219 44.546875 C 68.960938 44.585938 68.867188 44.699219 68.867188 44.792969 C 68.867188 44.886719 69.429688 44.964844 70.140625 44.945312 C 71.324219 44.945312 71.378906 44.925781 70.988281 44.660156 C 70.722656 44.472656 70.292969 43.523438 69.710938 41.816406 C 69.203125 40.414062 68.714844 39.277344 68.585938 39.277344 C 68.453125 39.277344 67.910156 40.359375 67.382812 41.683594 Z M 68.679688 42.441406 C 68.679688 42.59375 68.453125 42.6875 68.113281 42.6875 C 67.457031 42.6875 67.457031 42.707031 67.851562 41.78125 L 68.152344 41.078125 L 68.414062 41.648438 C 68.546875 41.949219 68.660156 42.328125 68.679688 42.441406 Z M 68.679688 42.441406 "/>
<path style=" stroke:none;fill-rule:nonzero;fill:rgb(0%,0%,0%);fill-opacity:1;" d="M 72.433594 39.464844 C 72.433594 39.5625 72.542969 39.65625 72.695312 39.65625 C 72.882812 39.65625 72.957031 40.148438 73.03125 41.722656 C 73.125 44.167969 73.351562 44.660156 74.535156 44.984375 C 75.472656 45.230469 76.503906 44.984375 77.050781 44.375 C 77.347656 44.035156 77.425781 43.617188 77.460938 41.816406 C 77.519531 40.109375 77.59375 39.65625 77.800781 39.65625 C 77.949219 39.65625 78.0625 39.5625 78.0625 39.464844 C 78.0625 39.351562 77.6875 39.277344 77.21875 39.277344 C 76.75 39.277344 76.375 39.351562 76.375 39.464844 C 76.375 39.5625 76.503906 39.65625 76.65625 39.65625 C 76.878906 39.65625 76.9375 40.015625 76.9375 41.703125 C 76.9375 43.597656 76.898438 43.789062 76.503906 44.167969 C 75.960938 44.679688 75.171875 44.699219 74.683594 44.207031 C 74.363281 43.882812 74.308594 43.582031 74.308594 41.816406 C 74.308594 40.109375 74.363281 39.75 74.648438 39.542969 C 74.929688 39.316406 74.796875 39.296875 73.707031 39.277344 C 72.976562 39.277344 72.433594 39.351562 72.433594 39.464844 Z M 72.433594 39.464844 "/>
<path style=" stroke:none;fill-rule:nonzero;fill:rgb(0%,0%,0%);fill-opacity:1;" d="M 79.75 40.035156 C 79.75 40.925781 80.050781 41.039062 80.222656 40.226562 C 80.316406 39.75 80.425781 39.65625 80.898438 39.65625 L 81.441406 39.65625 L 81.441406 42.121094 C 81.441406 44.1875 81.402344 44.585938 81.160156 44.585938 C 81.007812 44.585938 80.878906 44.660156 80.878906 44.773438 C 80.878906 44.886719 81.441406 44.964844 82.210938 44.964844 C 83.035156 44.964844 83.488281 44.886719 83.410156 44.773438 C 83.355469 44.660156 83.167969 44.585938 83.015625 44.585938 C 82.8125 44.585938 82.753906 44.148438 82.753906 42.121094 L 82.753906 39.65625 L 83.300781 39.65625 C 83.75 39.65625 83.84375 39.75 83.957031 40.261719 C 84.085938 40.964844 84.238281 40.886719 84.445312 39.960938 L 84.59375 39.277344 L 79.75 39.277344 Z M 79.75 40.035156 "/>
<path style=" stroke:none;fill-rule:nonzero;fill:rgb(0%,0%,0%);fill-opacity:1;" d="M 86.359375 39.714844 C 87.242188 40.433594 88.199219 42.40625 88.199219 43.464844 C 88.199219 44.128906 88.121094 44.433594 87.914062 44.507812 C 87.296875 44.753906 87.691406 44.964844 88.761719 44.964844 C 89.378906 44.964844 89.886719 44.886719 89.886719 44.773438 C 89.886719 44.660156 89.753906 44.585938 89.605469 44.585938 C 89.378906 44.585938 89.324219 44.339844 89.324219 43.449219 C 89.324219 42.519531 89.4375 42.101562 89.90625 41.210938 C 90.242188 40.625 90.730469 39.941406 90.992188 39.714844 L 91.480469 39.277344 L 90.449219 39.277344 C 89.53125 39.296875 89.453125 39.316406 89.753906 39.542969 C 90.074219 39.808594 90.074219 39.847656 89.605469 40.8125 L 89.097656 41.796875 L 88.554688 40.871094 C 87.933594 39.808594 87.898438 39.65625 88.292969 39.65625 C 88.441406 39.65625 88.574219 39.5625 88.574219 39.464844 C 88.574219 39.351562 87.992188 39.277344 87.222656 39.277344 L 85.851562 39.277344 Z M 86.359375 39.714844 "/>
<path style=" stroke:none;fill-rule:nonzero;fill:rgb(0%,0%,0%);fill-opacity:1;" d="M 59.667969 48.851562 C 59.238281 49.382812 59.839844 50.214844 60.515625 49.96875 C 61.191406 49.703125 60.964844 48.566406 60.230469 48.566406 C 60.042969 48.566406 59.800781 48.699219 59.667969 48.851562 Z M 59.667969 48.851562 "/>
<path style=" stroke:none;fill-rule:nonzero;fill:rgb(0%,0%,0%);fill-opacity:1;" d="M 52.574219 50.121094 C 52.179688 50.519531 52.292969 51.410156 52.78125 51.582031 C 53.589844 51.902344 54.1875 50.839844 53.550781 50.195312 C 53.195312 49.835938 52.875 49.816406 52.574219 50.121094 Z M 52.574219 50.121094 "/>
<path style=" stroke:none;fill-rule:nonzero;fill:rgb(0%,0%,0%);fill-opacity:1;" d="M 59.59375 52.226562 C 58.917969 52.71875 59.667969 53.816406 60.382812 53.382812 C 60.8125 53.097656 60.871094 52.660156 60.515625 52.28125 C 60.136719 51.921875 60.027344 51.902344 59.59375 52.226562 Z M 59.59375 52.226562 "/>
<path style=" stroke:none;fill-rule:nonzero;fill:rgb(0%,0%,0%);fill-opacity:1;" d="M 50.003906 52.605469 C 49.757812 52.792969 49.703125 53.003906 49.777344 53.34375 C 49.945312 53.96875 50.585938 54.140625 51.054688 53.664062 C 51.449219 53.265625 51.355469 52.832031 50.828125 52.546875 C 50.417969 52.300781 50.417969 52.300781 50.003906 52.605469 Z M 50.003906 52.605469 "/>
<path style=" stroke:none;fill-rule:nonzero;fill:rgb(0%,0%,0%);fill-opacity:1;" d="M 56.703125 55.429688 C 56.273438 55.863281 56.574219 56.71875 57.171875 56.71875 C 57.53125 56.71875 57.792969 55.941406 57.566406 55.523438 C 57.378906 55.144531 57.023438 55.105469 56.703125 55.429688 Z M 56.703125 55.429688 "/>
</g>
</svg>
